<?xml version="1.0" encoding="UTF-8" standalone="no"?>
<svg
   xmlns:dc="http://purl.org/dc/elements/1.1/"
   xmlns:cc="http://creativecommons.org/ns#"
   xmlns:rdf="http://www.w3.org/1999/02/22-rdf-syntax-ns#"
   xmlns:svg="http://www.w3.org/2000/svg"
   xmlns="http://www.w3.org/2000/svg"
   xmlns:xlink="http://www.w3.org/1999/xlink"
   width="151.16666mm"
   height="244.56662mm"
   viewBox="0 0 151.16666 244.56662"
   version="1.1"
   id="svg8">
  <defs
     id="defs2">
    <clipPath
       clipPathUnits="userSpaceOnUse"
       id="clipPath1027">
      <circle
         style="fill:#ffffff;stroke:none;stroke-width:0;stroke-miterlimit:4;stroke-dasharray:none"
         id="circle1029"
         cx="74.583328"
         cy="74.583321"
         r="61.441311" />
    </clipPath>
  </defs>
  <metadata
     id="metadata5">
    <rdf:RDF>
      <cc:Work
         rdf:about="">
        <dc:format>image/svg+xml</dc:format>
        <dc:type
           rdf:resource="http://purl.org/dc/dcmitype/StillImage" />
        <dc:title></dc:title>
      </cc:Work>
    </rdf:RDF>
  </metadata>
  <g
     id="layer1"
     transform="translate(-29.416668,-26.834731)">
    <path
       id="path864"
       style="fill:#ffffff;fill-opacity:1;stroke:#000000;stroke-width:3;stroke-linecap:butt;stroke-linejoin:miter;stroke-miterlimit:4;stroke-dasharray:none;stroke-opacity:1"
       d="m 105,28.334731 a 74.083335,74.083335 0 0 0 -74.083332,74.083329 74.083335,74.083335 0 0 0 7.081736,31.60893 h -0.0083 l 0.158129,0.31626 a 74.083335,74.083335 0 0 0 1.193726,2.38693 L 105,268.04723 170.66111,136.72398 a 74.083335,74.083335 0 0 0 1.18184,-2.36316 l 0.16691,-0.33383 h -0.008 A 74.083335,74.083335 0 0 0 179.08333,102.41806 74.083335,74.083335 0 0 0 105,28.334731 Z" />
    <circle
       style="fill:#ffffff;stroke:#000000;stroke-width:1;stroke-miterlimit:4;stroke-dasharray:none"
       id="none"
       cx="105"
       cy="102.41805"
       r="61.441311" />
  </g>
  <g
     id="layer3"
     style="display:inline"
     transform="translate(1,1)">
    <image
       xlink:href="../../../../../Pictures/JeremyWells-2019-angle-blue-edited.jpg"
       clip-path="url(#clipPath1027)"
       width="149.76646"
       height="149.76646"
       preserveAspectRatio="none"
       id="face"
       x="-0.22089583"
       y="0.14884192" />
  </g>
</svg>
